<svg width="105" height="115" fill="none" xmlns="http://www.w3.org/2000/svg"><path d="M22.13 109.109c.331.586.5 1.248.488 1.92a3.472 3.472 0 0 1-.654 2.127 4.109 4.109 0 0 1-1.75 1.342 6.205 6.205 0 0 1-2.4.457 5.898 5.898 0 0 1-2.226-.404 6.658 6.658 0 0 1-1.153-.748.407.407 0 0 0-.26-.158c-.276 0-.467.724-.576 1.015h-.646c.073-1.169.11-3.234.11-5.555h.645c.127.971.323 1.932.59 2.874.212.694.622 1.31 1.18 1.775.62.447 1.376.669 2.14.627a2.78 2.78 0 0 0 1.19-.267c.391-.189.717-.489.939-.861.265-.468.393-1 .37-1.536a2.495 2.495 0 0 0-.407-1.375 4.307 4.307 0 0 0-1.023-1.091c-.406-.324-1.011-.724-1.77-1.213a33.261 33.261 0 0 1-2.12-1.436 5.08 5.08 0 0 1-1.243-1.366 3.507 3.507 0 0 1-.508-1.9 3.417 3.417 0 0 1 .565-2.022 3.388 3.388 0 0 1 1.502-1.213 5.36 5.36 0 0 1 2.092-.404 4.76 4.76 0 0 1 1.778.316c.46.175.893.416 1.283.715a.807.807 0 0 0 .496.206c.329 0 .54-.659.63-1.24h.645c-.073 1.168-.11 1.754-.11 4.972h-.645a6.343 6.343 0 0 0-1.194-3.145 3.103 3.103 0 0 0-2.635-1.234 2.398 2.398 0 0 0-1.662.538 1.958 1.958 0 0 0-.645 1.561 2.15 2.15 0 0 0 .666 1.617c.495.468 1.04.882 1.624 1.233.625.404 1.072.671 1.336.845.72.453 1.415.947 2.08 1.48.517.433.951.958 1.278 1.548zm14.253 1.868.565.218a5.717 5.717 0 0 1-1.052 1.84 5.553 5.553 0 0 1-1.799 1.386 5.35 5.35 0 0 1-2.408.534 6.432 6.432 0 0 1-3.468-.91 5.834 5.834 0 0 1-2.229-2.555 8.887 8.887 0 0 1-.768-3.792 10.436 10.436 0 0 1 .784-4.221 6.202 6.202 0 0 1 2.213-2.749 5.875 5.875 0 0 1 3.358-.958 5.04 5.04 0 0 1 3.89 1.654c.91 1.014 1.365 2.72 1.365 4.766h-8.791a9.842 9.842 0 0 0-.098 1.65 7.5 7.5 0 0 0 .613 3.137 5.03 5.03 0 0 0 1.6 2.09c.595.467 1.33.721 2.087.724 1.885 0 3.261-.946 4.13-2.814h.008zm-8.373-5.955h6.124c.013-.8-.066-1.599-.236-2.382a3.874 3.874 0 0 0-.905-1.754 1.922 1.922 0 0 0-1.523-.639 2.576 2.576 0 0 0-1.592.574 3.555 3.555 0 0 0-1.218 1.528 9.75 9.75 0 0 0-.658 2.673h.008zm15.788 8.154c-.142-.291-.065-.695-.065-1.213V92.61a7.743 7.743 0 0 1-2.647.404c-.49.008-.98-.019-1.466-.08v.586a1.912 1.912 0 0 1 1.478.582c.317.384.284 1.01.284 1.876v15.989c-.046.435-.2.852-.447 1.213-.142.291-.06.497-.365.615a2.803 2.803 0 0 1-.95.178v.586c1.47-.073 2.538-.109 3.086-.109s1.027.036 3.082.109v-.586a3.625 3.625 0 0 1-1.287-.178 1.267 1.267 0 0 1-.71-.619h.007zm17.396 0a2.99 2.99 0 0 1-.13-1.213V99.835c-.292.129-1.311 0-1.981.052-.67.053-1.681-.133-2.843-.133h-4.548c-.003-.963.056-1.924.179-2.879.088-.61.289-1.198.593-1.734.812-1.44 2.128-2.11 3.992-2.11a3.79 3.79 0 0 1 2.03.452 1.798 1.798 0 0 0-.934 1.589c-.002.315.084.624.248.894.162.271.39.497.666.655.27.163.58.248.897.246.314.002.623-.082.893-.242.271-.164.498-.392.658-.663.165-.275.25-.59.248-.91a1.773 1.773 0 0 0-.962-1.544 5.383 5.383 0 0 0-1.625-.615 9.504 9.504 0 0 0-2.148-.234 8.593 8.593 0 0 0-3.074.5c-.877.332-1.624.57-2.18 1.129-1.357 1.257-2.03 3.416-2.03 5.466h-1.918v1.192h1.763v11.033c.04.41-.006.822-.134 1.213-.142.291-.215.498-.524.615-.35.14-.728.201-1.105.178v.586c1.47-.073 2.721-.109 3.25-.109.405 0 1.465.036 3.52.109v-.586a2.96 2.96 0 0 1-1.624-.437c-.407-.291-.407-.808-.407-1.573v-11.029h4.276c.813 0 1.377.097 1.694.49.371.519.547 1.151.495 1.787v8.756c.013.417-.067.832-.236 1.213a1.39 1.39 0 0 1-.763.615c-.43.163-.89.224-1.348.178v.586a89.396 89.396 0 0 1 3.525-.109c.548 0 2.35.036 3.524.109v-.586c-.425.02-.851-.04-1.254-.178a1.231 1.231 0 0 1-.69-.631h.007zm11.858-5.555a23.145 23.145 0 0 0-2.08-1.484c-.263-.173-.71-.452-1.34-.844a9.533 9.533 0 0 1-1.624-1.238 2.18 2.18 0 0 1-.666-1.617 1.979 1.979 0 0 1 .646-1.576 2.412 2.412 0 0 1 1.66-.57 3.156 3.156 0 0 1 2.636 1.297 6.349 6.349 0 0 1 1.194 3.146h.646c0-3.235.036-3.805.11-4.973h-.646c-.09.582-.3 1.241-.63 1.241a.88.88 0 0 1-.495-.222 4.877 4.877 0 0 0-1.283-.708 4.774 4.774 0 0 0-1.779-.315 5.356 5.356 0 0 0-2.091.404 3.427 3.427 0 0 0-1.507 1.213 3.441 3.441 0 0 0-.56 2.021c-.016.669.16 1.328.508 1.901.326.527.748.99 1.242 1.366.487.372 1.194.853 2.12 1.435.76.473 1.352.874 1.77 1.213.403.302.749.671 1.024 1.092.267.409.408.887.406 1.374a2.862 2.862 0 0 1-.37 1.537 2.21 2.21 0 0 1-.942.861c-.37.176-.775.267-1.186.267a3.348 3.348 0 0 1-2.14-.631 3.726 3.726 0 0 1-1.181-1.771 20.204 20.204 0 0 1-.59-2.874h-.649c0 2.336-.036 4.386-.11 5.555h.646c.11-.292.3-1.015.577-1.015.1.007.194.054.26.129.357.292.743.547 1.153.76a5.878 5.878 0 0 0 2.221.404c.824.01 1.641-.144 2.404-.452a4.105 4.105 0 0 0 1.75-1.339 3.48 3.48 0 0 0 .65-2.126 3.8 3.8 0 0 0-.483-1.92 5.475 5.475 0 0 0-1.28-1.541h.009zm17.92 6.17c-.309-.118-.354-.324-.496-.615-.142-.291-.032-.695-.032-1.213v-7.479a8.098 8.098 0 0 0-.406-2.26 3.425 3.425 0 0 0-.849-1.415c-.674-.703-1.71-1.051-3.017-1.051a4.385 4.385 0 0 0-2.562.784c-.837.526-1.698 1.379-1.698 2.563V92.638c-1.762.263-2.172.405-3.382.405-.565 0-1.024-.029-2.201-.085v.59c1.177 0 1.754.194 2.067.578.506.504.815 1.17.873 1.88v15.961c-.043.434-.192.85-.435 1.213-.142.291-.654.497-.958.615-.305.117-.37.178-1.547.178v.586c2.059-.073 3.114-.109 3.654-.109s1.941.036 3.411.109v-.586a6.047 6.047 0 0 1-1.181-.178c-.26-.118-.215-.324-.341-.615-.126-.291.052-.695.052-1.213v-6.254c0-.974-.113-1.844.22-2.616a4.049 4.049 0 0 1 1.263-1.803 3.18 3.18 0 0 1 1.965-.651 2.076 2.076 0 0 1 1.413.425c.405.272.72.657.906 1.107.211.544.348 1.114.406 1.694v8.086a2.895 2.895 0 0 1-.439 1.213 1.08 1.08 0 0 1-.552.615c-.264.117-.183.177-1.064.177v.587a57.935 57.935 0 0 1 2.972-.109c.537 0 1.726.036 3.196.109v-.587a4.528 4.528 0 0 1-1.246-.169h.008z" fill="#000"/><path d="M87.914 17.352v-1.063c3.075 0 5.491.396 7.248 1.188a7.291 7.291 0 0 1 3.821 3.995c.788 1.867 1.182 4.46 1.182 7.778a70.761 70.761 0 0 0 .357 8.248c.236 1.886.657 3.234 1.263 4.043a3.408 3.408 0 0 0 2.664 1.313h.276v1.011h-.276a3.482 3.482 0 0 0-2.664 1.354c-.603.81-1.024 2.157-1.263 4.043a70.495 70.495 0 0 0-.357 8.22c0 3.444-.394 6.111-1.182 8a7.206 7.206 0 0 1-3.805 3.99c-1.754.769-4.175 1.153-7.264 1.153v-1.067c1.226-.02 2.114-.289 2.664-.809.55-.52.934-1.598 1.153-3.234.268-2.687.378-5.387.329-8.086 0-3.159.5-5.707 1.498-7.645a10.378 10.378 0 0 1 3.898-4.334 18.946 18.946 0 0 1 5.686-2.135 18.946 18.946 0 0 1-5.685-2.134 10.403 10.403 0 0 1-3.899-4.318c-.999-1.933-1.498-4.493-1.498-7.682a65.308 65.308 0 0 0-.33-7.819c-.218-1.617-.607-2.695-1.165-3.234-.564-.465-1.433-.736-2.651-.776zM17.156 69.566v1.059c-3.078 0-5.496-.396-7.253-1.189a7.332 7.332 0 0 1-3.82-3.994c-.786-1.87-1.18-4.465-1.183-7.782a70.68 70.68 0 0 0-.357-8.248c-.235-1.887-.656-3.234-1.263-4.043a3.397 3.397 0 0 0-2.672-1.294H.332v-1.01h.276a3.492 3.492 0 0 0 2.664-1.355c.604-.808 1.025-2.156 1.263-4.043.28-2.729.399-5.472.357-8.215 0-3.447.394-6.114 1.182-8 .34-.883.85-1.69 1.503-2.375a7.22 7.22 0 0 1 2.302-1.62c1.751-.77 4.174-1.158 7.269-1.16v1.067c-1.219 0-2.116.283-2.668.809-.553.525-.934 1.585-1.154 3.234a68.758 68.758 0 0 0-.328 8.086c0 3.153-.5 5.7-1.499 7.64a10.333 10.333 0 0 1-3.898 4.339 19.055 19.055 0 0 1-5.685 2.13A19.062 19.062 0 0 1 7.6 45.737a10.337 10.337 0 0 1 3.898 4.322c1 1.932 1.499 4.485 1.499 7.657a65.416 65.416 0 0 0 .329 7.823c.219 1.617.609 2.695 1.169 3.234.56.54 1.447.803 2.66.793zM66.136 39.564c-5.327-8.086-15.025-11.078-21.404-17.858-6.193-6.57-4.308-18.193.845-21.706-7.488 2.333-14.729 14.384-9.835 28.195 2.643 7.451 9.193 11.696 14.44 18.363 4.629 5.878 8.446 12.02 8.25 19.442-.19 7.176-4.06 14.47-8.206 20.166 3.773-2.98 6.445-4.706 9.628-7.872 3.74-3.727 7.955-8.154 10.298-15.844 2.437-8.029.938-15.363-4.016-22.886z" fill="#010002"/><path d="M54.705 71.07c.573-5.66-3.05-10.993-7.573-14.64-3.147-2.53-7.565-4.354-9.173-8.328-1.608-3.974-.11-8.716 1.77-11.28-2.347 1.395-4.134 3.825-5.279 7.055-2.664 7.613 1.51 13.447 8.065 19.742 2.696 2.587 4.873 4.471 6.136 8.11 2.391 5.154-.053 10.511-1.925 15.189 5.145-5.098 7.252-8.858 7.959-15.848" fill="#010002"/></svg>